<svg width="20" height="20" viewBox="0 0 20 20" fill="none" xmlns="http://www.w3.org/2000/svg">
<path fill-rule="evenodd" clip-rule="evenodd" d="M7.10538 3.24466L6.99861 3.34171L1.33195 9.17504C0.923397 9.59561 0.89197 10.2574 1.23767 10.715L1.33195 10.825L6.99861 16.6583C7.44121 17.1139 8.15879 17.1139 8.60139 16.6583C9.00994 16.2377 9.04136 15.576 8.69567 15.1183L8.60139 15.0084L4.8692 11.1655L16.8667 11.1667C17.4926 11.1667 18 10.6443 18 10C18 9.35567 17.4926 8.83333 16.8667 8.83333L4.87147 8.83217L8.60139 4.99162C9.00994 4.57106 9.04136 3.90929 8.69567 3.45162L8.60139 3.34171C8.19284 2.92114 7.54998 2.88879 7.10538 3.24466Z" fill="#333333"/>
</svg>
