<svg width="24" height="24" viewBox="0 0 24 24" fill="none" xmlns="http://www.w3.org/2000/svg">
<path d="M4.61231 13.8375C2.3248 13.8375 0.487305 15.7125 0.487305 17.9625C0.487305 20.2125 2.3623 22.0875 4.61231 22.0875C6.86231 22.0875 8.73731 20.2125 8.73731 17.9625C8.73731 15.7125 6.89981 13.8375 4.61231 13.8375ZM4.61231 20.775C3.0373 20.775 1.7998 19.5 1.7998 17.9625C1.7998 16.425 3.0748 15.15 4.61231 15.15C6.14981 15.15 7.42481 16.425 7.42481 17.9625C7.42481 19.5 6.14981 20.775 4.61231 20.775Z" fill="#333333"/>
<path d="M19.4248 13.8375C17.1373 13.8375 15.2998 15.675 15.2998 17.9625C15.2998 20.25 17.1373 22.0875 19.4248 22.0875C21.7123 22.0875 23.5498 20.25 23.5498 17.9625C23.5498 15.675 21.6748 13.8375 19.4248 13.8375ZM19.4248 20.775C17.8873 20.775 16.6123 19.5 16.6123 17.9625C16.6123 16.425 17.8873 15.15 19.4248 15.15C20.9623 15.15 22.2373 16.425 22.2373 17.9625C22.2373 19.5 20.9623 20.775 19.4248 20.775Z" fill="#333333"/>
<path d="M17.7 11.2875C17.925 11.5875 18.3375 11.625 18.6375 11.4C18.9375 11.175 18.975 10.7625 18.75 10.4625L15.45 6.2625L15.375 6.225C15.075 5.925 14.625 5.85 14.2125 6.0375L9.71246 8.6625C9.44996 8.8125 9.26246 9.075 9.22496 9.375C9.18746 9.6375 9.29996 9.9375 9.48746 10.125L10.9875 11.85C11.25 12.15 11.3625 12.4875 11.3625 12.8625V15.45C11.3625 15.825 11.6625 16.125 12.0375 16.125C12.4125 16.125 12.7125 15.825 12.7125 15.45V12.8625C12.7125 12.1875 12.45 11.5125 12 10.9875L10.8 9.5625L14.625 7.35L17.7 11.2875Z" fill="#333333"/>
<path d="M18.4499 6.225C19.6499 6.225 20.6249 5.25 20.6249 4.05C20.6249 2.85 19.6499 1.875 18.4499 1.875C17.2499 1.875 16.2749 2.85 16.2749 4.05C16.2749 5.25 17.2499 6.225 18.4499 6.225ZM18.4499 3.225C18.8999 3.225 19.3124 3.6 19.3124 4.0875C19.3124 4.5375 18.9374 4.95 18.4499 4.95C17.9999 4.95 17.5874 4.575 17.5874 4.0875C17.5874 3.6 17.9624 3.225 18.4499 3.225Z" fill="#333333"/>
</svg>
