<svg width="17" height="16" viewBox="0 0 17 16" fill="none" xmlns="http://www.w3.org/2000/svg">
<path d="M10.7857 14.8571H6.21424C4.9571 14.8571 3.92853 13.8286 3.92853 12.5714V5.14284C3.92853 4.79998 4.1571 4.57141 4.49996 4.57141H12.5C12.8428 4.57141 13.0714 4.79998 13.0714 5.14284V12.5714C13.0714 13.8286 12.0428 14.8571 10.7857 14.8571ZM5.07139 5.71427V12.5714C5.07139 13.2 5.58567 13.7143 6.21424 13.7143H10.7857C11.4142 13.7143 11.9285 13.2 11.9285 12.5714V5.71427H5.07139Z" fill="#333333"/>
<path d="M9.64284 12.5714C9.29998 12.5714 9.07141 12.3429 9.07141 12V7.42858C9.07141 7.08572 9.29998 6.85715 9.64284 6.85715C9.9857 6.85715 10.2143 7.08572 10.2143 7.42858V12C10.2143 12.3429 9.9857 12.5714 9.64284 12.5714Z" fill="#333333"/>
<path d="M7.35713 12.5714C7.01428 12.5714 6.78571 12.3429 6.78571 12V7.42858C6.78571 7.08572 7.01428 6.85715 7.35713 6.85715C7.69999 6.85715 7.92856 7.08572 7.92856 7.42858V12C7.92856 12.3429 7.69999 12.5714 7.35713 12.5714Z" fill="#333333"/>
<path d="M13.0714 3.42857H3.92855C3.58569 3.42857 3.35712 3.2 3.35712 2.85714C3.35712 2.51428 3.58569 2.28571 3.92855 2.28571H6.21426C6.21426 1.65714 6.72854 1.14285 7.35712 1.14285H9.64283C10.2714 1.14285 10.7857 1.65714 10.7857 2.28571H13.0714C13.4143 2.28571 13.6428 2.51428 13.6428 2.85714C13.6428 3.2 13.4143 3.42857 13.0714 3.42857Z" fill="#333333"/>
</svg>
