<svg width="17" height="16" viewBox="0 0 17 16" fill="none" xmlns="http://www.w3.org/2000/svg">
<path d="M6.78585 12.5714H4.50014C4.15728 12.5714 3.92871 12.3429 3.92871 12V9.71429C3.92871 9.54286 3.98585 9.42857 4.10014 9.31429L11.643 1.77143C12.043 1.37143 12.5573 1.14286 13.1859 1.14286C14.3859 1.14286 15.3573 2.11429 15.3573 3.31429C15.3573 3.88572 15.1287 4.45715 14.7287 4.85715L7.18585 12.4C7.07157 12.5143 6.95728 12.5714 6.78585 12.5714ZM5.07157 11.4286H6.55728L13.9287 4.05715C14.1001 3.88572 14.2144 3.6 14.2144 3.31429C14.2144 2.74286 13.7573 2.28572 13.1859 2.28572C12.9001 2.28572 12.6716 2.4 12.443 2.57143L5.07157 9.94286V11.4286Z" fill="#2764FE"/>
<path d="M13.0716 14.8571H3.92878C2.67164 14.8571 1.64307 13.8286 1.64307 12.5714V3.42857C1.64307 2.17143 2.67164 1.14286 3.92878 1.14286H7.92878C8.27164 1.14286 8.50021 1.37143 8.50021 1.71429C8.50021 2.05715 8.27164 2.28572 7.92878 2.28572H3.92878C3.30021 2.28572 2.78592 2.8 2.78592 3.42857V12.5714C2.78592 13.2 3.30021 13.7143 3.92878 13.7143H13.0716C13.7002 13.7143 14.2145 13.2 14.2145 12.5714V8.57143C14.2145 8.22857 14.4431 8 14.7859 8C15.1288 8 15.3574 8.22857 15.3574 8.57143V12.5714C15.3574 13.8286 14.3288 14.8571 13.0716 14.8571Z" fill="#2764FE"/>
</svg>
