<svg width="24" height="24" viewBox="0 0 24 24" fill="none" xmlns="http://www.w3.org/2000/svg">
<path d="M18.0002 16.2857H6.00021C5.48592 16.2857 5.14307 15.9428 5.14307 15.4286V5.14285C5.14307 4.62856 5.48592 4.28571 6.00021 4.28571H18.0002C18.2574 4.28571 18.5145 4.45713 18.6859 4.62856L22.1145 9.77142C22.2859 10.0286 22.2859 10.4571 22.1145 10.7143L18.6859 15.8571C18.5145 16.1143 18.2574 16.2857 18.0002 16.2857ZM6.85735 14.5714H17.5716L20.4002 10.2857L17.5716 5.99999H6.85735V14.5714Z" fill="#333333"/>
<path d="M16.2858 19.7143H2.5715C2.05721 19.7143 1.71436 19.3714 1.71436 18.8571V11.1428C1.71436 10.6286 2.05721 10.2857 2.5715 10.2857C3.08578 10.2857 3.42864 10.6286 3.42864 11.1428V18H16.2858C16.8001 18 17.1429 18.3428 17.1429 18.8571C17.1429 19.3714 16.8001 19.7143 16.2858 19.7143Z" fill="#333333"/>
</svg>
