<svg width="24" height="24" viewBox="0 0 24 24" fill="none" xmlns="http://www.w3.org/2000/svg">
<path fill-rule="evenodd" clip-rule="evenodd" d="M9.18641 19.9529C9.49534 19.6769 9.96946 19.7037 10.2454 20.0126C11.251 21.1384 12.7482 21.1279 13.7473 20.012C14.0235 19.7033 14.4977 19.6771 14.8063 19.9534C15.1149 20.2297 15.1411 20.7039 14.8648 21.0125C13.2754 22.7879 10.7345 22.8118 9.12669 21.0118C8.85076 20.7029 8.87749 20.2288 9.18641 19.9529Z" fill="#333333"/>
<path fill-rule="evenodd" clip-rule="evenodd" d="M6.56037 4.3939C7.72181 2.89651 9.52163 1.76416 11.9963 1.76416C14.4706 1.76416 16.2703 2.89654 17.4319 4.39386C18.5751 5.86761 19.1073 7.69867 19.1073 9.18368C19.1073 9.60992 19.0943 9.92636 19.0845 10.1665C19.0825 10.2159 19.0806 10.262 19.0789 10.3052C19.0693 10.5635 19.0712 10.6876 19.0911 10.8105C19.1363 11.0901 19.2793 11.4345 19.8507 12.6938C19.8564 12.7064 19.8618 12.7191 19.8668 12.732C20.2796 13.7945 20.1873 14.7719 19.6963 15.6001C19.2277 16.3904 18.4402 16.9724 17.589 17.3971C15.8867 18.2463 13.6363 18.6118 11.9963 18.6118C10.3559 18.6118 8.10527 18.2463 6.40295 17.3971C5.55169 16.9724 4.76418 16.3904 4.29576 15.6C3.80487 14.7717 3.71277 13.7943 4.12588 12.7319C4.13088 12.719 4.13622 12.7063 4.14192 12.6938C4.71333 11.4345 4.85635 11.0901 4.90152 10.8105C4.92138 10.6876 4.92334 10.5635 4.91368 10.3052C4.91206 10.262 4.91017 10.2159 4.90815 10.1665C4.89832 9.92637 4.88537 9.60993 4.88537 9.18368C4.88537 7.69875 5.41722 5.86768 6.56037 4.3939ZM7.74562 5.31323C6.81685 6.51064 6.38537 8.01433 6.38537 9.18368C6.38537 9.57678 6.39695 9.86076 6.4067 10.0998C6.40881 10.1515 6.41083 10.201 6.41263 10.2491C6.42258 10.515 6.42781 10.7681 6.38232 11.0497C6.29781 11.5728 6.04089 12.139 5.52692 13.2716L5.51689 13.2937C5.26801 13.9464 5.34785 14.4331 5.58617 14.8353C5.84918 15.2791 6.35334 15.696 7.07255 16.0548C8.51119 16.7725 10.5168 17.1118 11.9963 17.1118C13.4753 17.1118 15.4807 16.7725 16.9194 16.0548C17.6386 15.696 18.1428 15.279 18.406 14.8352C18.6444 14.4329 18.7243 13.9462 18.4757 13.2936L18.4657 13.2716C17.9517 12.139 17.6948 11.5728 17.6103 11.0497C17.5648 10.7681 17.5701 10.515 17.58 10.2491C17.5818 10.201 17.5838 10.1515 17.5859 10.0998C17.5957 9.86077 17.6073 9.57679 17.6073 9.18368C17.6073 8.01441 17.1756 6.51071 16.2467 5.31327C15.3361 4.1394 13.9554 3.26416 11.9963 3.26416C10.0367 3.26416 8.65607 4.13943 7.74562 5.31323Z" fill="#333333"/>
</svg>
