<svg width="32" height="40" viewBox="0 0 32 40" fill="none" xmlns="http://www.w3.org/2000/svg">
<path fill-rule="evenodd" clip-rule="evenodd" d="M13.1864 27.9529C13.4953 27.6769 13.9695 27.7037 14.2454 28.0126C15.251 29.1384 16.7482 29.1279 17.7473 28.012C18.0235 27.7033 18.4977 27.6771 18.8063 27.9534C19.1149 28.2297 19.1411 28.7039 18.8648 29.0125C17.2754 30.7879 14.7345 30.8118 13.1267 29.0118C12.8508 28.7029 12.8775 28.2288 13.1864 27.9529Z" fill="#333333"/>
<path fill-rule="evenodd" clip-rule="evenodd" d="M10.5603 12.3939C11.7217 10.8965 13.5215 9.76416 15.9962 9.76416C18.4705 9.76416 20.2702 10.8965 21.4318 12.3939C22.575 13.8676 23.1072 15.6987 23.1072 17.1837C23.1072 17.6099 23.0942 17.9264 23.0844 18.1665C23.0824 18.2159 23.0805 18.262 23.0788 18.3052C23.0692 18.5635 23.0711 18.6876 23.091 18.8105C23.1362 19.0901 23.2792 19.4345 23.8506 20.6938C23.8563 20.7064 23.8617 20.7191 23.8667 20.732C24.2795 21.7945 24.1872 22.7719 23.6962 23.6001C23.2276 24.3904 22.4401 24.9724 21.5889 25.3971C19.8866 26.2463 17.6362 26.6118 15.9962 26.6118C14.3558 26.6118 12.1052 26.2463 10.4028 25.3971C9.55157 24.9724 8.76406 24.3904 8.29564 23.6C7.80475 22.7717 7.71265 21.7943 8.12576 20.7319C8.13076 20.719 8.1361 20.7063 8.1418 20.6938C8.71321 19.4345 8.85623 19.0901 8.9014 18.8105C8.92126 18.6876 8.92322 18.5635 8.91356 18.3052C8.91194 18.262 8.91005 18.2159 8.90803 18.1665C8.8982 17.9264 8.88525 17.6099 8.88525 17.1837C8.88525 15.6987 9.4171 13.8677 10.5603 12.3939ZM11.7455 13.3132C10.8167 14.5106 10.3853 16.0143 10.3853 17.1837C10.3853 17.5768 10.3968 17.8608 10.4066 18.0998C10.4087 18.1515 10.4107 18.201 10.4125 18.2491C10.4225 18.515 10.4277 18.7681 10.3822 19.0497C10.2977 19.5728 10.0408 20.139 9.5268 21.2716L9.51677 21.2937C9.26789 21.9464 9.34773 22.4331 9.58605 22.8353C9.84906 23.2791 10.3532 23.696 11.0724 24.0548C12.5111 24.7725 14.5167 25.1118 15.9962 25.1118C17.4752 25.1118 19.4806 24.7725 20.9193 24.0548C21.6385 23.696 22.1427 23.279 22.4059 22.8352C22.6443 22.4329 22.7242 21.9462 22.4756 21.2936L22.4656 21.2716C21.9516 20.139 21.6947 19.5728 21.6102 19.0497C21.5647 18.7681 21.57 18.515 21.5799 18.2491C21.5817 18.201 21.5837 18.1515 21.5858 18.0998C21.5956 17.8608 21.6072 17.5768 21.6072 17.1837C21.6072 16.0144 21.1755 14.5107 20.2466 13.3133C19.336 12.1394 17.9553 11.2642 15.9962 11.2642C14.0366 11.2642 12.656 12.1394 11.7455 13.3132Z" fill="#333333"/>
<rect x="16" y="4" width="15" height="15" rx="7.5" fill="#F1414F"/>
<path d="M21.6268 15L24.7728 8.477H20.8018V7.443H26.0818V8.279L22.9028 15H21.6268Z" fill="white"/>
</svg>
