<svg width="16" height="20" viewBox="0 0 16 20" fill="none" xmlns="http://www.w3.org/2000/svg">
<path fill-rule="evenodd" clip-rule="evenodd" d="M5.33383 12.9684L5.12605 13.0027C3.19883 13.3204 1.75 15.0477 1.75 17.1115C1.75 17.7634 2.25549 18.25 2.82813 18.25H13.1719C13.7445 18.25 14.25 17.7634 14.25 17.1115C14.25 15.0477 12.8012 13.3204 10.874 13.0027L10.6662 12.9684C8.8999 12.6772 7.1001 12.6772 5.33383 12.9684ZM10.9102 11.4884L11.118 11.5226C13.8042 11.9655 15.75 14.349 15.75 17.1115C15.75 18.5455 14.6185 19.75 13.1719 19.75H2.82813C1.38147 19.75 0.25 18.5455 0.25 17.1115C0.25 14.349 2.19583 11.9655 4.88203 11.5226L5.08981 11.4884C7.01769 11.1705 8.9823 11.1705 10.9102 11.4884Z" fill="#333333"/>
<path fill-rule="evenodd" clip-rule="evenodd" d="M8.00034 1.75C6.13344 1.75 4.66699 3.20257 4.66699 4.9375C4.66699 6.67243 6.13344 8.125 8.00034 8.125C9.86724 8.125 11.3336 6.67243 11.3336 4.9375C11.3336 3.20257 9.86724 1.75 8.00034 1.75ZM3.16699 4.9375C3.16699 2.32319 5.35689 0.25 8.00034 0.25C10.6437 0.25 12.8336 2.32319 12.8336 4.9375C12.8336 7.55181 10.6437 9.625 8.00034 9.625C5.35689 9.625 3.16699 7.55181 3.16699 4.9375Z" fill="#333333"/>
</svg>
