<svg width="16" height="16" viewBox="0 0 16 16" fill="none" xmlns="http://www.w3.org/2000/svg">
<path d="M12.5715 13.7143H3.4286C2.17145 13.7143 1.14288 12.6857 1.14288 11.4286V9.71428C1.14288 9.37142 1.37145 9.14285 1.71431 9.14285C2.05717 9.14285 2.28574 9.37142 2.28574 9.71428V11.4286C2.28574 12.0571 2.80003 12.5714 3.4286 12.5714H12.5715C13.2 12.5714 13.7143 12.0571 13.7143 11.4286V9.71428C13.7143 9.37142 13.9429 9.14285 14.2857 9.14285C14.6286 9.14285 14.8572 9.37142 14.8572 9.71428V11.4286C14.8572 12.6857 13.8286 13.7143 12.5715 13.7143Z" fill="white"/>
<path d="M8.00001 11.4286C7.65715 11.4286 7.42858 11.2 7.42858 10.8571V4.22856L6.68572 4.97142C6.45715 5.19999 6.11429 5.19999 5.88572 4.97142C5.65715 4.74285 5.65715 4.39999 5.88572 4.17142L7.60001 2.45713C7.82858 2.22856 8.17144 2.22856 8.40001 2.45713L10.1143 4.17142C10.3429 4.39999 10.3429 4.74285 10.1143 4.97142C9.88572 5.19999 9.54287 5.19999 9.31429 4.97142L8.57144 4.22856V10.8571C8.57144 11.2 8.34287 11.4286 8.00001 11.4286Z" fill="white"/>
</svg>
